<svg xmlns="http://www.w3.org/2000/svg" xmlns:xlink="http://www.w3.org/1999/xlink" width="100%" height="100%" version="1.1" viewBox="0 0 1346 1346" xml:space="preserve" style="fill-rule:evenodd;clip-rule:evenodd;stroke-linejoin:round;stroke-miterlimit:2"><path d="M1345.83,620.311c0,-42.534 -34.532,-77.067 -77.067,-77.067l-236.666,-0c-42.535,-0 -77.068,34.533 -77.068,77.067l0,236.666c0,42.535 34.533,77.068 77.068,77.068l236.666,-0c42.535,-0 77.067,-34.533 77.067,-77.068l0,-236.666Z" style="fill:#2f81f9"/><path d="M793.532,155.494c0,-45.749 -37.142,-82.892 -82.892,-82.892l-75.447,0c-45.749,0 -82.892,37.143 -82.892,82.892l-0,225.017c-0,45.749 37.143,82.892 82.892,82.892l75.447,0c45.75,0 82.892,-37.143 82.892,-82.892l0,-225.017Z" style="fill:#1e6ef4"/><path d="M390.801,620.311c-0,-42.534 -34.533,-77.067 -77.068,-77.067l-236.665,-0c-42.535,-0 -77.068,34.533 -77.068,77.067l-0,236.666c-0,42.535 34.533,77.068 77.068,77.068l236.665,-0c42.535,-0 77.068,-34.533 77.068,-77.068l-0,-236.666Z" style="fill:#2f81f9"/><path d="M1204.41,332.484c-0,-70.901 -57.562,-128.463 -128.463,-128.463l-812.285,0c-70.9,0 -128.462,57.562 -128.462,128.463l-0,812.284c-0,70.901 57.562,128.463 128.462,128.463l812.285,0c70.901,0 128.463,-57.562 128.463,-128.463l-0,-812.284Z" style="fill:#93c9ff"/><circle cx="855.077" cy="641.853" r="84.424"/><circle cx="490.756" cy="641.853" r="84.424"/><path d="M791.714,997.008l-237.594,-0c-30.77,-0 -56.089,-25.319 -56.089,-56.089c0,-30.769 25.319,-56.088 56.089,-56.088l237.594,-0c30.769,-0 56.088,25.319 56.088,56.088c0,30.77 -25.319,56.089 -56.088,56.089Z" style="fill:#fff"/></svg>