<svg xmlns="http://www.w3.org/2000/svg" xmlns:xlink="http://www.w3.org/1999/xlink" width="100%" height="100%" version="1.1" viewBox="0 0 1346 1346" xml:space="preserve" style="fill-rule:evenodd;clip-rule:evenodd;stroke-linejoin:round;stroke-miterlimit:2"><path d="M1346.26,672.899c0,-178.464 -70.894,-349.619 -197.087,-475.812c-126.193,-126.193 -297.348,-197.087 -475.811,-197.087l-0.463,0c-178.464,0 -349.619,70.894 -475.812,197.087c-126.193,126.193 -197.087,297.348 -197.087,475.812l0,0.036c-0,178.463 70.894,349.618 197.087,475.811c126.193,126.193 297.348,197.087 475.812,197.087l0.463,0c178.463,0 349.618,-70.894 475.811,-197.087c126.193,-126.193 197.087,-297.348 197.087,-475.811l0,-0.036Z" style="fill:#282a36"/><path d="M552.679,956.594c-0,33.769 5.226,66.733 14.874,97.286c-154.37,-53.467 -270.952,-195.375 -283.012,-361.404c-12.06,-176.479 89.647,-341.302 254.067,-410.447c42.613,-17.688 64.322,-4.824 73.568,4.422c8.844,8.844 21.307,30.151 3.618,70.753c-18.09,41.809 -26.935,86.029 -26.935,131.858c0.402,82.009 32.563,157.988 84.824,216.278c-73.567,58.693 -121.004,149.547 -121.004,251.254Z" style="fill:#f8f8f2;fill-rule:nonzero"/><path d="M1043.5,905.133c-79.597,108.14 -205.827,171.657 -340.499,171.657c-6.432,-0 -12.864,-0.402 -19.296,-0.804c-40.2,-1.608 -79.195,-9.246 -116.18,-22.11c-9.648,-30.553 -14.874,-63.517 -14.874,-97.286c0,-101.707 47.437,-192.561 121.004,-251.254c59.095,66.331 143.918,109.346 237.585,113.366c25.327,1.206 50.653,-0.804 75.578,-5.226c45.024,-8.04 63.114,8.844 69.547,19.698c6.834,10.854 14.07,34.573 -12.865,71.959Z" style="fill:#dfdedc"/></svg>