<svg xmlns="http://www.w3.org/2000/svg" xmlns:xlink="http://www.w3.org/1999/xlink" width="100%" height="100%" version="1.1" viewBox="0 0 1346 1346" xml:space="preserve" style="fill-rule:evenodd;clip-rule:evenodd;stroke-linecap:round;stroke-miterlimit:10"><path d="M672.917,564.14l-0,327.704c-0,179.797 98.064,325.534 219.008,325.534" style="fill:none;fill-rule:nonzero;stroke:#23b169;stroke-width:73.57px"/><path d="M-0,175.633c117.707,-67.718 286.911,-64.334 435.994,21.849c149.084,86.184 236.923,231.001 236.923,366.658c-117.707,67.718 -286.727,64.334 -435.995,-21.849c-149.267,-86.184 -236.812,-231.001 -236.922,-366.658Z" style="fill:#68c76f;fill-rule:nonzero"/><path d="M1345.83,175.633c-117.486,-67.718 -286.69,-64.334 -435.994,21.849c-149.304,86.184 -236.922,231.001 -236.922,366.658c117.707,67.718 286.911,64.334 435.994,-21.849c149.083,-86.184 236.812,-231.001 236.922,-366.658Z" style="fill:#68c76f;fill-rule:nonzero"/></svg>