<?xml version="1.0" encoding="UTF-8" standalone="no"?><!DOCTYPE svg PUBLIC "-//W3C//DTD SVG 1.1//EN" "http://www.w3.org/Graphics/SVG/1.1/DTD/svg11.dtd"><svg width="100%" height="100%" viewBox="0 0 1346 1346" version="1.1" xmlns="http://www.w3.org/2000/svg" xmlns:xlink="http://www.w3.org/1999/xlink" xml:space="preserve" xmlns:serif="http://www.serif.com/" style="fill-rule:evenodd;clip-rule:evenodd;stroke-linejoin:round;stroke-miterlimit:2;"><path d="M1110.02,325.037c15.933,106.314 34.477,167.166 -41.607,167.166c-103.314,-0 -103.314,-244.886 -278.622,-384.392c-173.244,-137.987 -302.465,-104.445 -305.192,-103.704c144.142,120.456 63.812,318.437 -30.659,373.016c-90.576,52.358 -194.047,-13.674 -139.857,-169.114c-119.093,162.842 -222.057,360.199 -222.057,556.817c0,318.668 262.224,580.893 580.893,580.893c318.668,-0 580.892,-262.225 580.892,-580.893c0,-151.466 -61.241,-303.438 -143.791,-439.789Z" style="fill:#ef4452;fill-rule:nonzero;"/><path d="M672.917,673.627c-0,-0 252.599,145.467 252.599,348.707c-0,138.572 -114.028,252.599 -252.599,252.599c-138.572,0 -252.6,-114.027 -252.6,-252.599c0,-203.24 252.6,-348.707 252.6,-348.707Z" style="fill:#ff7978;fill-rule:nonzero;"/></svg>