<svg xmlns="http://www.w3.org/2000/svg" xmlns:xlink="http://www.w3.org/1999/xlink" width="100%" height="100%" version="1.1" viewBox="0 0 1346 1346" xml:space="preserve" style="fill-rule:evenodd;clip-rule:evenodd;stroke-linejoin:round;stroke-miterlimit:2"><path d="M1345.83,672.489l0,0.013c0,178.355 -70.851,349.405 -196.967,475.521c-126.116,126.117 -297.167,196.968 -475.522,196.968l-0.855,-0c-178.355,-0 -349.405,-70.851 -475.522,-196.968c-126.116,-126.116 -196.967,-297.166 -196.967,-475.521l0,-0.013c-0,-178.355 70.851,-349.405 196.967,-475.522c126.117,-126.116 297.167,-196.967 475.522,-196.967l0.855,-0c178.355,-0 349.406,70.851 475.522,196.967c126.116,126.117 196.967,297.167 196.967,475.522Zm-298.341,-114.458c-0,-149.472 -75.334,-224.805 -223.011,-224.207l-300.737,-0c-11.958,-0 -23.916,0.598 -35.276,1.793c-126.751,10.762 -190.127,85.497 -190.127,223.01l0,187.737c0,187.736 74.737,224.805 224.806,224.805l18.534,-0c10.164,-0 23.915,7.174 29.894,14.947l56.201,75.333c25.111,33.482 65.17,33.482 90.281,0l56.201,-75.333c6.577,-9.567 17.937,-14.947 29.895,-14.947l18.534,-0c137.514,-0 212.249,-63.376 223.011,-190.128c1.196,-11.36 1.794,-23.318 1.794,-35.275l-0,-187.735Z" style="fill:#bd93f9"/></svg>