<svg xmlns="http://www.w3.org/2000/svg" xmlns:xlink="http://www.w3.org/1999/xlink" width="100%" height="100%" version="1.1" viewBox="0 0 323 323" xml:space="preserve" style="fill-rule:evenodd;clip-rule:evenodd;stroke-linejoin:round;stroke-miterlimit:2"><path d="M322.914,161.558l-0,0.009c-0,89.111 -72.239,161.35 -161.35,161.35l-0.211,-0c-89.111,-0 -161.35,-72.239 -161.35,-161.35l-0,-0.009c-0,-89.111 72.239,-161.35 161.35,-161.35l0.211,0c89.111,0 161.35,72.239 161.35,161.35Zm-127.764,7.647l-20.31,0c-16.659,0 -30.23,-13.477 -30.23,-30.23l-0,-20.31c-0,-3.837 -3.089,-7.019 -7.02,-7.019l-29.669,-0c-21.62,-0 -39.122,14.039 -39.122,39.122l0,62.145c0,25.083 17.502,39.122 39.122,39.122l55.127,0c21.62,0 39.121,-14.039 39.121,-39.122l0,-36.688c0,-3.931 -3.182,-7.02 -7.019,-7.02Zm21.712,-104.356l-55.127,0c-21.152,0 -38.279,13.478 -39.028,37.531c0.561,0 1.029,-0.094 1.591,-0.094l55.126,0c21.62,0 39.122,14.039 39.122,39.122l0,62.24c0,0.561 -0.093,1.029 -0.093,1.497c20.871,-0.655 37.531,-14.507 37.531,-38.934l-0,-62.24c-0,-25.083 -17.502,-39.122 -39.122,-39.122Zm-54.651,48.203c-2.902,-2.901 -7.862,-0.936 -7.862,3.088l0,24.521c0,10.296 8.704,18.719 19.374,18.719c6.645,0.094 15.911,0.094 23.866,0.094c4.024,-0 6.084,-4.68 3.276,-7.488c-10.202,-10.201 -28.359,-28.452 -38.654,-38.934Z" style="fill:#bd93f9"/></svg>