<?xml version="1.0" encoding="UTF-8" standalone="no"?><!DOCTYPE svg PUBLIC "-//W3C//DTD SVG 1.1//EN" "http://www.w3.org/Graphics/SVG/1.1/DTD/svg11.dtd"><svg width="100%" height="100%" viewBox="0 0 323 323" version="1.1" xmlns="http://www.w3.org/2000/svg" xmlns:xlink="http://www.w3.org/1999/xlink" xml:space="preserve" xmlns:serif="http://www.serif.com/" style="fill-rule:evenodd;clip-rule:evenodd;stroke-linejoin:round;stroke-miterlimit:2;"><path d="M322.864,161.35c-0,-42.793 -16.999,-83.833 -47.258,-114.092c-30.259,-30.259 -71.299,-47.258 -114.092,-47.258l-0.111,0c-42.793,0 -83.833,16.999 -114.092,47.258c-30.259,30.259 -47.258,71.299 -47.258,114.092l-0,0.009c-0,42.792 16.999,83.832 47.258,114.091c30.259,30.259 71.299,47.259 114.092,47.259l0.111,-0c42.793,-0 83.833,-17 114.092,-47.259c30.259,-30.259 47.258,-71.299 47.258,-114.091l-0,-0.009Z" style="fill:#f8f8f2;"/><path d="M161.626,253.132c-4.598,0 -8.359,-3.427 -8.359,-8.024l-0,-0.669c-0,-4.597 3.761,-8.359 8.359,-8.359c4.597,0 8.358,3.762 8.358,8.359c0,4.597 -3.761,8.693 -8.358,8.693Zm59.68,-23.571c-2.173,-0 -4.263,-0.836 -5.934,-2.424l-1.087,-1.087c-3.26,-3.26 -3.26,-8.526 -0,-11.786c3.26,-3.259 8.526,-3.259 11.786,0l1.086,1.087c3.26,3.26 3.26,8.526 0,11.786c-1.588,1.588 -3.678,2.424 -5.851,2.424Zm-119.361,-0c-2.173,-0 -4.263,-0.836 -5.935,-2.424c-3.26,-3.26 -3.26,-8.526 0,-11.786l1.087,-1.087c3.26,-3.259 8.526,-3.259 11.786,0c3.259,3.26 3.259,8.526 -0,11.786l-1.087,1.087c-1.588,1.588 -3.761,2.424 -5.851,2.424Zm143.267,-59.681l-0.669,0c-4.597,0 -8.358,-3.761 -8.358,-8.359c-0,-4.597 3.761,-8.358 8.358,-8.358c4.597,-0 8.693,3.761 8.693,8.358c0,4.598 -3.427,8.359 -8.024,8.359Zm-166.504,0l-0.669,0c-4.597,0 -8.358,-3.761 -8.358,-8.359c-0,-4.597 3.761,-8.358 8.358,-8.358c4.597,-0 8.693,3.761 8.693,8.358c0,4.598 -3.427,8.359 -8.024,8.359Zm141.512,-58.594c-2.174,0 -4.263,-0.836 -5.935,-2.424c-3.26,-3.26 -3.26,-8.526 -0,-11.786l1.087,-1.086c3.259,-3.26 8.525,-3.26 11.785,-0c3.26,3.26 3.26,8.526 0,11.785l-1.086,1.087c-1.589,1.588 -3.678,2.424 -5.851,2.424Zm-117.189,0c-2.173,0 -4.262,-0.836 -5.934,-2.424l-1.087,-1.17c-3.26,-3.26 -3.26,-8.526 0,-11.786c3.26,-3.26 8.526,-3.26 11.786,0l1.087,1.087c3.259,3.26 3.259,8.526 -0,11.786c-1.589,1.671 -3.762,2.507 -5.852,2.507Zm58.595,-24.658c-4.598,0 -8.359,-3.427 -8.359,-8.024l-0,-0.669c-0,-4.597 3.761,-8.358 8.359,-8.358c4.597,-0 8.358,3.761 8.358,8.358c0,4.597 -3.761,8.693 -8.358,8.693Z" style="fill:#6272a4;fill-rule:nonzero;"/><path d="M161.458,219.865c-32.314,-0 -58.51,-26.196 -58.51,-58.511c-0,-32.314 26.196,-58.51 58.51,-58.51c32.315,-0 58.511,26.196 58.511,58.51c-0,32.315 -26.196,58.511 -58.511,58.511Z" style="fill:#ffb86c;"/></svg>