<?xml version="1.0" encoding="UTF-8" standalone="no"?><!DOCTYPE svg PUBLIC "-//W3C//DTD SVG 1.1//EN" "http://www.w3.org/Graphics/SVG/1.1/DTD/svg11.dtd"><svg width="100%" height="100%" viewBox="0 0 1346 1346" version="1.1" xmlns="http://www.w3.org/2000/svg" xmlns:xlink="http://www.w3.org/1999/xlink" xml:space="preserve" xmlns:serif="http://www.serif.com/" style="fill-rule:evenodd;clip-rule:evenodd;stroke-linejoin:round;stroke-miterlimit:2;"><path d="M1345.48,672.292l0,0.037c0,371.296 -300.996,672.292 -672.292,672.292l-0.879,-0c-371.296,-0 -672.292,-300.996 -672.292,-672.292l0,-0.037c0,-371.296 300.996,-672.292 672.292,-672.292l0.879,-0c371.296,-0 672.292,300.996 672.292,672.292Zm-521.104,-361.434l-302.896,0c-131.567,0 -210.004,78.434 -210.004,210.005l-0,302.533c-0,131.929 78.437,210.366 210.004,210.366l302.533,0c131.571,0 210.004,-78.437 210.004,-210.004l0,-302.896c0.363,-131.57 -78.075,-210.004 -209.641,-210.004Zm29.279,496.996l-144.583,0c-14.817,0 -27.109,-12.291 -27.109,-27.108c0,-14.821 12.292,-27.109 27.109,-27.109l144.583,0c14.817,0 27.108,12.288 27.108,27.109c0,14.817 -12.291,27.108 -27.108,27.108Zm-365.396,0c-10.121,0 -19.521,-5.421 -24.217,-14.821c-6.866,-13.37 -1.445,-29.637 12.288,-36.504c31.446,-15.546 58.196,-39.4 77.35,-68.317c6.508,-9.758 6.508,-22.045 -0,-31.808c-19.517,-28.912 -46.263,-52.771 -77.35,-68.312c-13.733,-6.505 -19.154,-22.771 -12.288,-36.505c6.505,-13.375 22.771,-18.795 36.146,-11.929c39.759,19.879 73.734,49.879 98.313,86.746c18.433,27.833 18.433,63.979 -0,91.808c-24.579,36.871 -58.554,66.871 -98.313,86.75c-3.616,1.809 -7.954,2.892 -11.929,2.892Z" style="fill:#bd93f9;"/><path d="M488.254,807.854c-10.121,0 -19.521,-5.421 -24.216,-14.821c-6.867,-13.37 -1.446,-29.637 12.287,-36.504c31.446,-15.546 58.196,-39.4 77.35,-68.317c6.508,-9.758 6.508,-22.045 0,-31.808c-19.517,-28.912 -46.262,-52.771 -77.35,-68.312c-13.733,-6.505 -19.154,-22.771 -12.287,-36.505c6.504,-13.375 22.77,-18.795 36.145,-11.929c39.759,19.879 73.734,49.879 98.313,86.746c18.433,27.833 18.433,63.979 -0,91.808c-24.579,36.871 -58.554,66.871 -98.313,86.75c-3.616,1.809 -7.954,2.892 -11.929,2.892Z" style="fill:#bd93f9;fill-rule:nonzero;"/><path d="M853.65,807.854l-144.583,0c-14.817,0 -27.109,-12.291 -27.109,-27.108c0,-14.821 12.292,-27.109 27.109,-27.109l144.583,0c14.817,0 27.108,12.288 27.108,27.109c0,14.817 -12.291,27.108 -27.108,27.108Z" style="fill:#bd93f9;fill-rule:nonzero;"/></svg>