<svg xmlns="http://www.w3.org/2000/svg" id="Layer_1" data-name="Layer 1" viewBox="0 0 40 40"><defs><style>.cls-1{fill:none}.cls-2{fill:#abb7c7}.cls-3{fill:#4e5968}.cls-4{fill:#5e6773}.cls-5{fill:#d0d6de}.cls-6{fill:#8595aa}</style></defs><rect width="40" height="40" class="cls-1"/><rect width="40" height="40" class="cls-1"/><polygon points="5.07 11.174 25.928 30.454 28.227 28.155 2.695 2.642 5.07 11.174" class="cls-2"/><polygon points="11.233 5.015 30.527 25.857 28.227 28.155 2.695 2.642 11.233 5.015" class="cls-2"/><path d="M31.231,27.643l5.913,6.075a1.256,1.256,0,0,1-.012,1.764l-1.51,1.509A1.255,1.255,0,0,1,33.86,37l-6.08-5.909a1.256,1.256,0,0,1-.013-1.789l1.677-1.675A1.255,1.255,0,0,1,31.231,27.643Z" class="cls-3"/><rect width="11.586" height="2.997" x="22.874" y="27.096" class="cls-4" rx="1.017" transform="translate(-11.823 28.653) rotate(-45.009)"/><polygon points="34.93 11.174 14.072 30.454 11.773 28.155 37.305 2.642 34.93 11.174" class="cls-5"/><polygon points="28.767 5.015 9.473 25.857 11.773 28.155 37.305 2.642 28.767 5.015" class="cls-5"/><path d="M8.769,27.643,2.856,33.718a1.256,1.256,0,0,0,.012,1.764l1.51,1.509A1.255,1.255,0,0,0,6.14,37l6.08-5.909a1.256,1.256,0,0,0,.013-1.789L10.556,27.63A1.255,1.255,0,0,0,8.769,27.643Z" class="cls-3"/><rect width="2.997" height="11.586" x="9.834" y="22.801" class="cls-4" rx="1.017" transform="translate(-16.898 16.384) rotate(-44.991)"/><polygon points="25.22 20.15 20 24.974 21.566 26.422 25.22 20.15" class="cls-6"/></svg>