<?xml version="1.0" encoding="UTF-8" standalone="no"?><!DOCTYPE svg PUBLIC "-//W3C//DTD SVG 1.1//EN" "http://www.w3.org/Graphics/SVG/1.1/DTD/svg11.dtd"><svg width="100%" height="100%" viewBox="0 0 24317 18488" version="1.1" xmlns="http://www.w3.org/2000/svg" xmlns:xlink="http://www.w3.org/1999/xlink" xml:space="preserve" xmlns:serif="http://www.serif.com/" style="fill-rule:evenodd;clip-rule:evenodd;stroke-linejoin:round;stroke-miterlimit:2;"><g><path d="M0,15709.9l0,-15548.6c309.358,140.945 537.004,323.2 1125.44,323.2c959.195,-0 959.195,-484.517 1918.39,-484.517c959.338,-0 959.338,484.517 1918.68,484.517c959.409,-0 959.409,-484.517 1918.82,-484.517c959.271,-0 959.271,484.517 1918.47,484.517c959.408,-0 959.408,-484.517 1918.75,-484.517c959.408,-0 959.408,484.517 1918.89,484.517c959.267,-0 959.267,-484.517 1918.54,-484.517c959.479,-0 959.479,484.517 1918.96,484.517c959.338,-0 959.338,-484.517 1918.75,-484.517c959.338,-0 959.338,484.517 1918.75,484.517c959.484,-0 959.484,-484.517 1919.03,-484.517c959.337,-0 959.337,484.517 1918.75,484.517c54.946,-0 106.375,-1.755 155.346,-4.775l0,15548.6c-309.358,-140.942 -537,-323.2 -1125.43,-323.2c-955.948,-0 -959.189,481.237 -1908.68,484.5l-19.446,-0c-949.625,-3.263 -952.866,-484.5 -1908.95,-484.5c-956.16,-0 -959.402,481.237 -1909.1,484.5l-19.447,-0c-949.555,-3.263 -952.795,-484.5 -1908.74,-484.5c-956.156,-0 -959.397,481.237 -1909.03,484.5l-19.448,-0c-949.695,-3.263 -952.937,-484.5 -1909.16,-484.5c-956.019,-0 -959.26,481.237 -1908.82,484.5l-19.448,-0c-949.769,-3.263 -953.011,-484.5 -1909.24,-484.5c-956.086,-0 -959.327,481.237 -1909.02,484.5l-19.448,-0c-949.629,-3.263 -952.87,-484.5 -1909.03,-484.5c-956.227,-0 -959.468,481.237 -1909.3,484.5l-19.449,-0c-949.629,-3.263 -952.87,-484.5 -1909.03,-484.5c-54.942,-0 -106.375,1.756 -155.346,4.777Zm21271.4,2775.12c-3.23,0.011 -6.47,0.017 -9.722,0.017c-3.252,-0 -6.493,-0.006 -9.724,-0.017l19.446,0Zm-3837.49,0c-3.23,0.011 -6.472,0.017 -9.724,0.017c-3.252,-0 -6.493,-0.006 -9.723,-0.017l19.447,0Zm-3837.22,0c-3.23,0.011 -6.471,0.017 -9.724,0.017c-3.252,-0 -6.493,-0.006 -9.724,-0.017l19.448,0Zm-3837.43,0c-3.23,0.011 -6.471,0.017 -9.723,0.017c-3.252,-0 -6.494,-0.006 -9.725,-0.017l19.448,0Zm-3837.71,0c-3.23,0.011 -6.472,0.017 -9.724,0.017c-3.252,-0 -6.493,-0.006 -9.724,-0.017l19.448,0Zm-3837.78,0c-3.23,0.011 -6.472,0.017 -9.725,0.017c-3.252,-0 -6.493,-0.006 -9.724,-0.017l19.449,0Z" style="fill:#44475a;"/></g></svg>