<?xml version="1.0" encoding="UTF-8" standalone="no"?><!DOCTYPE svg PUBLIC "-//W3C//DTD SVG 1.1//EN" "http://www.w3.org/Graphics/SVG/1.1/DTD/svg11.dtd"><svg width="100%" height="100%" viewBox="0 0 57884 57884" version="1.1" xmlns="http://www.w3.org/2000/svg" xmlns:xlink="http://www.w3.org/1999/xlink" xml:space="preserve" xmlns:serif="http://www.serif.com/" style="fill-rule:evenodd;clip-rule:evenodd;stroke-linejoin:round;stroke-miterlimit:2;"><g><path d="M57870.3,17365l-0,23703.2c-0,10534.8 -6280.35,16815.1 -16815.2,16815.1l-24253.2,0c-10534.8,0 -16815.1,-6280.35 -16815.1,-16815.1l-0,-23674.2l57883.4,-28.948l-0.02,-0.02l0.02,-0.019Z" style="fill:#44475a;fill-opacity:0.4;fill-rule:nonzero;"/><path d="M20248.9,45582.8c-318.367,0 -665.67,-86.826 -955.089,-231.528c-2228.5,-1128.73 -4138.66,-2807.34 -5527.87,-4891.14c-1157.66,-1736.52 -1157.66,-3965.02 -0,-5701.53c1389.21,-2083.8 3299.37,-3762.4 5527.87,-4862.19c1070.84,-549.896 2373.22,-86.832 2923.11,984.012c549.896,1070.84 115.774,2373.22 -984.011,2923.12c-1562.85,781.425 -2894.17,1968.04 -3849.24,3415.12c-173.664,260.477 -173.664,607.78 0,897.199c955.07,1447.08 2286.39,2633.67 3849.24,3415.1c1070.84,549.896 1504.96,1852.28 984.011,2923.12c-405.173,694.612 -1186.6,1128.73 -1968.02,1128.73Z" style="fill:#bd93f9;fill-rule:nonzero;"/><path d="M38216.7,45582.8c-810.373,0 -1562.85,-434.115 -1939.1,-1186.62c-549.896,-1070.82 -115.761,-2373.2 984.031,-2923.09c1562.85,-781.424 2894.15,-1968.04 3849.24,-3415.12c173.639,-260.477 173.639,-607.787 0,-897.206c-955.089,-1447.08 -2286.39,-2633.69 -3849.24,-3415.12c-1070.84,-549.896 -1504.99,-1852.27 -984.031,-2923.09c549.889,-1070.84 1852.27,-1504.99 2923.11,-984.038c2228.52,1128.73 4138.66,2807.36 5527.86,4891.16c1157.66,1736.49 1157.66,3964.99 -0,5701.51c-1389.2,2083.8 -3299.34,3762.41 -5527.86,4862.19c-347.31,202.593 -665.651,289.419 -984.012,289.419Z" style="fill:#bd93f9;fill-rule:nonzero;"/><path d="M57870.3,16815.1l-0,549.896l-57883.4,28.942l-0,-578.838c-0,-10534.8 6280.35,-16815.1 16815.1,-16815.1l24253.2,0c10534.8,0 16815.1,6280.35 16815.1,16815.1l0.066,-0Z" style="fill:#bd93f9;fill-rule:nonzero;"/></g></svg>