<?xml version="1.0" encoding="UTF-8" standalone="no"?><!DOCTYPE svg PUBLIC "-//W3C//DTD SVG 1.1//EN" "http://www.w3.org/Graphics/SVG/1.1/DTD/svg11.dtd"><svg width="100%" height="100%" viewBox="0 0 13892 13892" version="1.1" xmlns="http://www.w3.org/2000/svg" xmlns:xlink="http://www.w3.org/1999/xlink" xml:space="preserve" xmlns:serif="http://www.serif.com/" style="fill-rule:evenodd;clip-rule:evenodd;stroke-linejoin:round;stroke-miterlimit:2;"><g><path d="M1122.53,254.301c-254.301,254.3 -254.301,663.582 -254.301,1482.16l0,8682.29c0,1637.13 0,2455.7 508.602,2964.31c283.556,283.563 663.457,409.019 1227.86,464.586l-0,-1258.33c-0,-719.237 583.078,-1302.34 1302.35,-1302.34c719.261,0 1302.34,583.104 1302.34,1302.34l0,1302.35l3472.91,-0l-0,-1302.35c-0,-719.237 583.103,-1302.34 1302.35,-1302.34c719.237,0 1302.34,583.104 1302.34,1302.34l0,1258.33c564.437,-55.567 944.288,-181.023 1227.85,-464.586c508.607,-508.614 508.607,-1327.18 508.607,-2964.31l0,-8682.29c0,-818.575 0,-1227.86 -254.307,-1482.16c-254.3,-254.301 -663.582,-254.301 -1482.15,-254.301l-8682.29,-0c-818.575,-0 -1227.86,-0 -1482.16,254.301l0.006,-0Z" style="fill:#44475a;fill-opacity:0.4;"/><path d="M3907.06,4455.36c-302.623,0 -548.31,-245.686 -548.31,-548.309c0,-302.616 245.687,-548.303 548.31,-548.303l6077.6,0c302.617,0 548.31,245.687 548.31,548.303c-0,302.623 -245.693,548.309 -548.31,548.309l-6077.6,0Z" style="fill:#bd93f9;"/><path d="M3907.06,7060.01c-302.623,0 -548.31,-245.686 -548.31,-548.309c0,-302.617 245.687,-548.309 548.31,-548.309l3472.91,-0c302.623,-0 548.309,245.692 548.309,548.309c0,302.623 -245.686,548.309 -548.309,548.309l-3472.91,0Z" style="fill:#bd93f9;"/><path d="M3907.06,9664.71c-302.623,0 -548.31,-245.692 -548.31,-548.309c0,-302.623 245.687,-548.309 548.31,-548.309l5209.37,-0c302.617,-0 548.309,245.686 548.309,548.309c0,302.617 -245.692,548.309 -548.309,548.309l-5209.37,0Z" style="fill:#bd93f9;"/><path d="M10418.7,12589.3l0,1302.35l-868.229,-0l0,-1302.35c0,-239.717 194.401,-434.112 434.118,-434.112c239.716,0 434.111,194.395 434.111,434.112Zm-6077.6,-0l0,1302.35l-868.229,-0l0,-1302.35c0,-239.717 194.364,-434.112 434.118,-434.112c239.748,0 434.111,194.395 434.111,434.112Z" style="fill:#bd93f9;"/></g></svg>