<svg xmlns="http://www.w3.org/2000/svg" xmlns:xlink="http://www.w3.org/1999/xlink" width="100%" height="100%" version="1.1" viewBox="0 0 3651 2660" xml:space="preserve" style="fill-rule:evenodd;clip-rule:evenodd;stroke-linejoin:round;stroke-miterlimit:2"><path id="b1d22f69-f76d-408f-9148-ee919735497c-519" d="M2660.92,2374.32c-46.624,16.389 -98.576,7.238 -136.794,-24.096c-47.913,-40.217 -62.938,-106.451 -75.157,-167.796l-36.153,-181.456l75.689,52.117c54.435,37.479 110.092,76.162 147.778,130.448c37.687,54.286 54.128,128.396 23.857,187.138" style="fill:#bd93f9;fill-rule:nonzero"/><path id="ade901b1-ea7b-4353-b3ad-0db3208b227f-520" d="M2649.23,2606.64c9.527,-69.406 19.329,-139.709 12.63,-209.859c-5.936,-62.302 -24.944,-123.141 -63.641,-173.048c-20.54,-26.434 -45.534,-49.083 -73.857,-66.929c-7.384,-4.659 -14.182,7.041 -6.83,11.683c49.001,30.967 86.92,76.715 108.256,130.611c23.569,59.942 27.353,125.288 23.293,188.965c-2.453,38.508 -7.668,76.763 -12.905,114.973c-0.853,3.565 1.228,7.229 4.728,8.322c3.577,0.963 7.317,-1.161 8.322,-4.727l0.004,0.009Z" style="fill:#f2f2f2;fill-rule:nonzero"/><path id="b15deb1b-9611-49d7-aeea-2d3d35262ea7-521" d="M2580.66,2495.27c-19.993,30.399 -54.502,48.215 -90.863,46.911c-46.008,-2.183 -84.349,-34.28 -118.86,-64.764l-102.099,-90.145l67.57,-3.234c48.593,-2.328 98.44,-4.511 144.724,10.491c46.284,15.003 88.969,51.052 97.431,98.96" style="fill:#e6e6e6;fill-rule:nonzero"/><path id="e75b09f7-43e2-4148-8f0b-911a9c6242e1-522" d="M2676.16,2646.53c-45.864,-81.152 -99.059,-171.343 -194.117,-200.17c-26.427,-7.988 -54.14,-10.849 -81.643,-8.431c-8.669,0.749 -6.504,14.11 2.147,13.365c46.093,-3.826 92.125,8.352 130.295,34.471c36.74,25.007 65.346,59.776 89.555,96.641c14.831,22.585 28.115,46.126 41.399,69.636c4.245,7.514 16.658,2.088 12.364,-5.512Z" style="fill:#f2f2f2;fill-rule:nonzero"/><circle cx="1645.91" cy="1454.14" r="248.999" style="fill:#fff"/><path d="M1645.91,1707.3c-138.882,-0 -253.165,-114.283 -253.165,-253.166c-0,-138.883 114.283,-253.166 253.165,-253.166c138.883,0 253.166,114.283 253.166,253.166c0,-0 0,-0 0,-0c-0.157,138.823 -114.342,253.009 -253.166,253.166Zm0,-497.998c-134.311,-0 -244.832,110.521 -244.832,244.832c0,134.311 110.521,244.832 244.832,244.832c134.312,0 244.833,-110.521 244.833,-244.832c-0.152,-134.254 -110.579,-244.681 -244.833,-244.832Z" style="fill:#3f3d56;fill-rule:nonzero"/><path d="M1603.9,1643.27l-1.663,-0.715c-0.954,-0.408 -23.269,-10.489 -15.251,-52.177l0.144,-0.459l2.972,-6.629c8.728,-19.537 12.996,-40.776 12.494,-62.168c-17.937,-0.415 -109.875,-3.023 -120.636,-13.017c-3.604,-3.335 -5.784,-7.936 -6.082,-12.838l-0.549,-8.766c-0.025,-0.409 -0.038,-0.819 -0.038,-1.229c-0,-10.807 8.893,-19.7 19.7,-19.7l5.293,-0l-3.747,-4.285c-3.001,-3.426 -4.656,-7.83 -4.654,-12.384l-0,-7.253c0.001,-6.82 3.712,-13.126 9.674,-16.439l3.009,-1.672l-1.73,-1.732c-3.527,-3.525 -5.51,-8.312 -5.51,-13.299c0,-9.052 6.536,-16.883 15.443,-18.502l19.683,-3.581c0.843,-14.525 12.117,-26.456 26.571,-28.119l56.263,-6.488c29.103,-5.189 58.765,-6.502 88.213,-3.902l8.616,0.761l87.051,-10.382l0,116.372l-80.501,11.049l-67.795,78.581c-11.433,33.153 -26.368,64.993 -44.549,94.981l-2.421,3.992Z" style="fill:#ffb7b7;fill-rule:nonzero"/><path d="M1596.52,1633.99l-3.804,-1.704l13.083,-29.25l15.329,4.725l-1.225,3.979l-11.804,-3.634l-11.579,25.884Z" style="fill-opacity:.2;fill-rule:nonzero"/><path d="M1441.6,1362.9l-26.651,-369.765l5.069,-123.414l-103.878,23.114l38.263,484.511c-3.574,7.365 -5.431,15.447 -5.431,23.634c0,29.701 24.441,54.142 54.142,54.142c29.701,-0 54.142,-24.441 54.142,-54.142c-0,-14.254 -5.63,-27.948 -15.656,-38.08l0,-0Z" style="fill:#ffb7b7;fill-rule:nonzero"/><path d="M930.785,1022.78l-6.605,-123.89l-66.667,-54.167l-38.622,114.723l-216.01,288.098c-26.147,4.189 -45.575,26.977 -45.575,53.457c0,29.7 24.439,54.139 54.139,54.139c29.7,-0 54.139,-24.439 54.139,-54.139c0,-0.009 0,-0.018 0,-0.028c0,-0.729 -0.08,-1.437 -0.109,-2.159l265.31,-276.034Z" style="fill:#ffb7b7;fill-rule:nonzero"/><path d="M942.739,983.122l-162.719,-173.67l120.822,-252.795c4.934,-10.462 13.922,-18.476 24.88,-22.181c10.774,-3.693 22.6,-2.844 32.735,2.352l1.188,0.603l-16.906,445.691Z" style="fill:#bd93f9;fill-rule:nonzero"/><path d="M1305.86,955.753l-28.904,-169.45l0.11,-0.427l68.333,-268.624l6.402,-0.744c38.061,-4.198 73.487,21.557 81.234,59.057l64.392,320.589l-191.567,59.599Z" style="fill:#bd93f9;fill-rule:nonzero"/><path d="M1342.67,444.722l-345.833,0l0,-156.25c0,-94.859 78.057,-172.916 172.917,-172.916c94.859,-0 172.916,78.057 172.916,172.916l0,156.25Z" style="fill:#44475a;fill-rule:nonzero"/><path d="M1784.48,2390.99l-58.529,49.262l-217.854,-202.312l86.383,-72.705l190,225.755Z" style="fill:#ffb7b7;fill-rule:nonzero"/><path d="M1847.15,2435.16l-188.721,158.837l-2.009,-2.387c-33.913,-40.296 -28.664,-101.36 11.628,-135.278l0.004,-0.004l115.265,-97.012l63.833,75.844Z" style="fill:#44475a;fill-rule:nonzero"/><path d="M907.183,2582.35l-76.495,-0.004l-36.396,-295.071l112.908,0.004l-0.017,295.071Z" style="fill:#ffb7b7;fill-rule:nonzero"/><path d="M926.695,2656.5l-246.667,-0.009l-0,-3.12c0.004,-52.668 43.342,-96.005 96.01,-96.008l0.006,-0l150.655,0.006l-0.004,99.131Z" style="fill:#44475a;fill-rule:nonzero"/><path d="M571.683,2508.28l38.079,-435.86c19.315,-220.745 64.765,-438.419 135.398,-648.45l159.456,-473.954l13.926,-110.376c-42.429,-87.984 2.511,-154.992 7.687,-162.223l-5.534,-109.644c-0.108,-2.156 -0.263,-4.24 -0.409,-6.25c-1.585,-21.541 -0.432,-33.956 41.605,-38.606l348.79,-10.755c44.132,-0.183 70.89,7.153 81.76,22.799c12.507,18.005 2.584,44.096 -7.01,69.328c-0.997,2.624 -1.998,5.249 -2.973,7.873l-138.153,370.951c66.856,129.244 53.969,326.909 53.831,328.894l4.899,58.46l507.143,828.78l-299.855,279.993l-1.335,-2.173l-483.026,-785.462l-4.15,791.667l-1.958,0.11l-448.171,24.898Z" style="fill:#44475a;fill-rule:nonzero"/><path d="M1041.75,240.285c37.416,-68.447 123.364,-93.64 191.81,-56.223c68.447,37.416 93.639,123.363 56.223,191.81c-37.416,68.446 -123.363,93.639 -191.81,56.223c-68.446,-37.416 -93.639,-123.364 -56.223,-191.81Z" style="fill:#ffb7b7"/><circle cx="1234" cy="94.084" r="94.084" style="fill:#44475a"/><path d="M1359.33,315.556l-345.833,-0l-0,-2.084c-0,-94.859 78.057,-172.916 172.916,-172.916c94.86,-0 172.917,78.057 172.917,172.916l0,2.084Z" style="fill:#44475a;fill-rule:nonzero"/><circle cx="462.582" cy="1104.14" r="248.999" style="fill:#fff"/><path d="M462.582,1357.3c-138.882,-0.001 -253.165,-114.284 -253.165,-253.166c-0,-138.883 114.283,-253.166 253.166,-253.166c138.882,0 253.165,114.283 253.165,253.166c0,-0 0,-0 0,-0c-0.157,138.823 -114.343,253.009 -253.166,253.166Zm0,-497.998c-134.311,-0 -244.832,110.521 -244.832,244.832c0,134.311 110.522,244.832 244.833,244.832c134.311,0 244.832,-110.521 244.832,-244.832c-0.152,-134.254 -110.579,-244.681 -244.833,-244.832Z" style="fill:#3f3d56;fill-rule:nonzero"/><path d="M309.334,1219.99l-0,-116.37l80.501,-11.049l67.795,-78.583c11.434,-33.153 26.368,-64.993 44.55,-94.981l2.421,-3.991l1.663,0.714c0.954,0.409 23.268,10.49 15.251,52.177l-0.144,0.459l-2.972,6.631c-8.729,19.537 -12.997,40.774 -12.494,62.166c17.936,0.415 109.874,3.023 120.636,13.019c3.604,3.335 5.785,7.936 6.082,12.838l0.548,8.766c0.026,0.41 0.039,0.819 0.039,1.229c-0,10.807 -8.893,19.7 -19.7,19.7l-5.293,0l3.747,4.283c2.999,3.427 4.654,7.83 4.654,12.384l-0,7.253c-0.003,6.82 -3.713,13.126 -9.674,16.441l-3.009,1.672l1.73,1.729c3.526,3.526 5.509,8.313 5.509,13.299c-0,9.053 -6.536,16.885 -15.443,18.505l-19.683,3.578c-0.843,14.526 -12.117,26.457 -26.572,28.119l-56.262,6.488c-29.103,5.193 -58.766,6.506 -88.213,3.903l-8.617,-0.761l-87.05,10.382Z" style="fill:#ffb7b7;fill-rule:nonzero"/><path d="M502.696,955.238l-15.329,-4.721l1.225,-3.984l11.804,3.638l11.583,-25.883l3.804,1.7l-13.087,29.25Z" style="fill-opacity:.2;fill-rule:nonzero"/></svg>