<?xml version="1.0" encoding="UTF-8" standalone="no"?><!DOCTYPE svg PUBLIC "-//W3C//DTD SVG 1.1//EN" "http://www.w3.org/Graphics/SVG/1.1/DTD/svg11.dtd"><svg width="100%" height="100%" viewBox="0 0 3334 3334" version="1.1" xmlns="http://www.w3.org/2000/svg" xmlns:xlink="http://www.w3.org/1999/xlink" xml:space="preserve" xmlns:serif="http://www.serif.com/" style="fill-rule:evenodd;clip-rule:evenodd;stroke-linejoin:round;stroke-miterlimit:2;"><path d="M2248.61,277.778l-1163.89,-0c-505.555,-0 -806.944,301.389 -806.944,806.944l-0,1162.5c-0,506.945 301.389,808.334 806.944,808.334l1162.5,-0c505.556,-0 806.945,-301.389 806.945,-806.945l-0,-1163.89c1.389,-505.555 -300,-806.944 -805.556,-806.944Z" style="fill:#44475a;fill-opacity:0.4;fill-rule:nonzero;"/><path d="M1666.54,2205.57c297.625,0 538.889,-241.263 538.889,-538.888c-0,-297.618 -241.264,-538.887 -538.889,-538.887c-297.614,0 -538.884,241.269 -538.884,538.887c0,297.625 241.27,538.888 538.884,538.888Z" style="fill:#bd93f9;fill-rule:nonzero;"/><path d="M2361.11,1041.65c-37.5,-0 -72.222,-13.889 -98.611,-40.278c-12.5,-13.889 -22.222,-29.167 -29.167,-45.833c-6.944,-16.667 -11.111,-34.723 -11.111,-52.778c0,-18.056 4.167,-36.111 11.111,-52.778c6.945,-18.055 16.667,-31.944 29.167,-45.833c31.944,-31.945 80.556,-47.222 125,-37.5c9.722,1.389 18.056,4.166 26.389,8.333c8.333,2.778 16.667,6.945 25,12.5c6.944,4.167 13.889,11.111 20.833,16.667c12.5,13.889 22.222,27.778 29.167,45.833c6.944,16.667 11.111,34.722 11.111,52.778c0,18.055 -4.167,36.111 -11.111,52.778c-6.945,16.666 -16.667,31.944 -29.167,45.833c-13.889,12.5 -29.166,22.222 -45.833,29.167c-16.667,6.944 -34.722,11.111 -52.778,11.111Z" style="fill:#bd93f9;fill-rule:nonzero;"/></svg>