<?xml version="1.0" encoding="UTF-8" standalone="no"?><!DOCTYPE svg PUBLIC "-//W3C//DTD SVG 1.1//EN" "http://www.w3.org/Graphics/SVG/1.1/DTD/svg11.dtd"><svg width="100%" height="100%" viewBox="0 0 3334 3334" version="1.1" xmlns="http://www.w3.org/2000/svg" xmlns:xlink="http://www.w3.org/1999/xlink" xml:space="preserve" xmlns:serif="http://www.serif.com/" style="fill-rule:evenodd;clip-rule:evenodd;stroke-linejoin:round;stroke-miterlimit:2;"><path d="M2500,2619.44l-105.556,0c-111.111,0 -216.666,43.056 -294.444,120.834l-237.5,234.722c-108.333,106.944 -284.722,106.944 -393.056,0l-237.5,-234.722c-77.777,-77.778 -184.722,-120.834 -294.444,-120.834l-104.167,0c-230.555,0 -416.666,-184.722 -416.666,-412.5l-0,-1515.28c-0,-227.778 186.111,-412.496 416.666,-412.496l1666.67,0c230.556,0 416.667,184.718 416.667,412.496l-0,1515.28c-0,226.389 -186.111,412.5 -416.667,412.5Z" style="fill:#44475a;fill-opacity:0.4;fill-rule:nonzero;"/><path d="M2302.85,1329.16c-26.389,-37.5 -70.833,-58.331 -123.611,-58.331l-270.833,0c-18.056,0 -34.722,-6.947 -45.834,-20.836c-11.111,-13.889 -16.666,-31.944 -13.888,-51.389l33.333,-216.666c13.889,-63.889 -29.167,-137.502 -93.056,-158.335c-59.722,-22.222 -130.555,8.33 -158.333,49.997l-269.447,400.002l-0,-49.999c-0,-97.222 -41.668,-137.499 -144.446,-137.499l-68.054,0c-102.778,0 -144.446,40.277 -144.446,137.499l-0,663.893c-0,97.222 41.668,137.5 144.446,137.5l68.054,0c97.222,0 138.889,-37.5 143.055,-126.389l204.171,156.945c27.778,27.777 90.278,43.055 134.723,43.055l256.944,0c88.889,0 177.778,-66.667 197.222,-148.611l162.5,-494.444c18.056,-44.445 13.889,-90.281 -12.5,-126.392Z" style="fill:#bd93f9;fill-rule:nonzero;"/></svg>