<?xml version="1.0" encoding="UTF-8" standalone="no"?><!DOCTYPE svg PUBLIC "-//W3C//DTD SVG 1.1//EN" "http://www.w3.org/Graphics/SVG/1.1/DTD/svg11.dtd"><svg width="100%" height="100%" viewBox="0 0 3334 3334" version="1.1" xmlns="http://www.w3.org/2000/svg" xmlns:xlink="http://www.w3.org/1999/xlink" xml:space="preserve" xmlns:serif="http://www.serif.com/" style="fill-rule:evenodd;clip-rule:evenodd;stroke-linejoin:round;stroke-miterlimit:2;"><path d="M694.444,2083.33c-130.555,0 -251.388,45.834 -347.222,122.223c-127.778,101.388 -208.333,258.333 -208.333,433.333c-0,104.167 29.167,202.778 80.555,286.111c95.834,161.111 272.223,269.444 475,269.444c140.278,0 268.057,-51.388 365.278,-138.888c43.056,-36.112 80.556,-80.556 109.722,-130.556c51.389,-83.333 80.556,-181.944 80.556,-286.111c0,-306.945 -248.611,-555.556 -555.556,-555.556Zm287.502,495.834l-295.835,273.611c-19.444,18.055 -45.835,27.778 -70.835,27.778c-26.388,-0 -52.777,-9.723 -73.611,-30.556l-137.498,-137.5c-40.278,-40.278 -40.278,-106.944 -0,-147.222c40.277,-40.278 106.944,-40.278 147.222,-0l66.667,66.666l222.222,-205.555c41.666,-38.889 108.333,-36.111 147.222,5.555c38.889,41.667 36.113,108.334 -5.554,147.223Z" style="fill:#bd93f9;fill-rule:nonzero;"/><path d="M2705.56,1798.61l280.555,0l0,-200c0,-287.499 -234.722,-522.222 -522.222,-522.222l-1594.45,-0c-287.5,-0 -522.221,234.723 -522.221,522.222l0,606.945c95.834,-76.389 216.667,-122.223 347.222,-122.223c306.945,0 555.556,248.611 555.556,555.556c0,104.167 -29.167,202.778 -80.556,286.111c-29.166,50 -66.666,94.444 -109.722,130.556l1404.17,-0c287.5,-0 522.222,-234.723 522.222,-522.223l0,-165.277l-263.889,-0c-150,-0 -287.5,-109.723 -300,-259.723c-8.333,-87.5 25,-169.444 83.334,-226.389c51.388,-52.777 122.222,-83.333 200,-83.333Z" style="fill:#44475a;fill-opacity:0.4;fill-rule:nonzero;"/><path d="M2062.5,548.628l0,527.776l-1193.06,0c-287.5,0 -522.221,234.724 -522.221,522.221l0,-509.717c0,-165.277 101.389,-312.507 255.556,-370.84l1102.78,-416.667c172.222,-63.888 356.944,62.505 356.944,247.227Z" style="fill:#bd93f9;fill-rule:nonzero;"/><path d="M3133.44,1940.31l0,286.111c0,76.389 -61.111,138.889 -138.888,141.666l-272.223,0c-150,0 -287.5,-109.722 -300,-259.722c-8.333,-87.5 25,-169.444 83.334,-226.389c51.389,-52.778 122.222,-83.333 200,-83.333l288.889,-0c77.777,2.778 138.888,65.278 138.888,141.667Z" style="fill:#bd93f9;fill-rule:nonzero;"/><path d="M1944.44,1770.83l-972.222,0c-56.944,0 -104.166,-47.222 -104.166,-104.166c-0,-56.945 47.222,-104.167 104.166,-104.167l972.222,-0c56.945,-0 104.167,47.222 104.167,104.167c0,56.944 -47.222,104.166 -104.167,104.166Z" style="fill:#bd93f9;fill-rule:nonzero;"/></svg>